<?xml version="1.0" encoding="UTF-8" standalone="no"?>
<svg
   id="Layer_1"
   data-name="Layer 1"
   viewBox="0 0 160 159.99999"
   version="1.1"
   sodipodi:docname="b 85416_design 1_(1).svg"
   inkscape:version="1.2.2 (b0a8486541, 2022-12-01)"
   width="160"
   height="160"
   xmlns:inkscape="http://www.inkscape.org/namespaces/inkscape"
   xmlns:sodipodi="http://sodipodi.sourceforge.net/DTD/sodipodi-0.dtd"
   xmlns="http://www.w3.org/2000/svg"
   xmlns:svg="http://www.w3.org/2000/svg">
  <sodipodi:namedview
     id="namedview633"
     pagecolor="#ffffff"
     bordercolor="#000000"
     borderopacity="0.25"
     inkscape:showpageshadow="2"
     inkscape:pageopacity="0.0"
     inkscape:pagecheckerboard="0"
     inkscape:deskcolor="#d1d1d1"
     showgrid="false"
     inkscape:zoom="5.3218653"
     inkscape:cx="83.053586"
     inkscape:cy="90.569748"
     inkscape:window-width="1920"
     inkscape:window-height="1001"
     inkscape:window-x="0"
     inkscape:window-y="0"
     inkscape:window-maximized="1"
     inkscape:current-layer="Layer_1" />
  <defs
     id="defs532">
    <style
       id="style530">.cls-1{fill:#f7f8f8;}.cls-2{fill:#0d8943;}.cls-3{fill:#79c47a;}.cls-4{fill:#f6ad1b;}.cls-5{fill:#826f2c;}.cls-6{fill:#f58020;}.cls-7{fill:#9abb3c;}.cls-8{fill:#e93d5c;}.cls-9{fill:#010101;}.cls-10{fill:#e5ea8b;}.cls-11{opacity:0.14;}.cls-12{fill:#f6eb16;}</style>
  </defs>
  <path
     class="cls-2"
     d="M 75.989136,95.679998 V 103.68 a 24.5,24.5 0 0 0 -24.8,0 v -8.000002 z"
     id="path536" />
  <path
     class="cls-3"
     d="m 75.989136,103.68 v 6.76 a 19,19 0 0 0 -24.8,0 v -6.76 a 24.5,24.5 0 0 1 24.8,0 z"
     id="path538" />
  <path
     class="cls-2"
     d="m 75.989136,145.95 v 8 h -24.8 v -8 a 24.5,24.5 0 0 0 24.8,0 z"
     id="path540" />
  <path
     class="cls-3"
     d="m 75.989136,139.22 v 6.76 a 24.5,24.5 0 0 1 -24.8,0 v -6.76 a 19,19 0 0 0 24.8,0 z"
     id="path542" />
  <path
     class="cls-4"
     d="m 109.39914,145.95 v 8 H 84.589138 v -8 a 24.52,24.52 0 0 0 24.810002,0 z"
     id="path544" />
  <path
     class="cls-4"
     d="M 109.39914,95.679998 V 103.68 a 24.52,24.52 0 0 0 -24.810002,0 v -8.000002 z"
     id="path546" />
  <path
     class="cls-5"
     d="m 142.52914,102.05 -7.13,34.66 a 21.59,21.59 0 0 1 -17.35,16.9 v -8.18 a 13.56,13.56 0 0 0 8.19,-6.62 12.22,12.22 0 0 0 0.75,-1.69 12.51,12.51 0 0 0 0.58,-2 l 1.67,-8.14 0.44,-2.12 2.14,-10.44 0.44,-2.13 1.77,-8.6 h -16 v -8.000002 h 19.28 a 5.31,5.31 0 0 1 5.22,6.360002 z"
     id="path548" />
  <path
     class="cls-6"
     d="m 136.93914,91.06 h -8.79 a 47.86,47.86 0 1 0 -95.710004,0 h -8.79 a 56.65,56.65 0 1 1 113.290004,0 z"
     id="path550" />
  <path
     class="cls-4"
     d="m 42.599136,103.68 v 41.75 a 13.38,13.38 0 0 1 -8.95,-8.31 12.51,12.51 0 0 1 -0.58,-2 l -1.67,-8.14 -0.44,-2.12 -2.14,-10.44 -0.44,-2.13 -1.77,-8.6 z"
     id="path552" />
  <path
     class="cls-7"
     d="m 133.97914,103.68 -1.77,8.6 -0.44,2.13 -2.14,10.44 -0.44,2.12 -1.66,8.14 a 12.51,12.51 0 0 1 -0.58,2 12.22,12.22 0 0 1 -0.75,1.69 13.56,13.56 0 0 1 -8.19,6.62 v -41.74 z"
     id="path554" />
  <path
     class="cls-6"
     d="m 42.599136,103.68 h -16 l 6.46,31.43 a 13.55,13.55 0 0 0 9.53,10.32 v 8.19 a 21.6,21.6 0 0 1 -17.35,-16.91 l -7.13,-34.66 a 5.3,5.3 0 0 1 5.18,-6.370002 h 19.3 z"
     id="path556" />
  <path
     class="cls-8"
     d="m 75.989136,110.44 v 28.78 a 19,19 0 0 1 -24.8,0 v -28.78 a 19,19 0 0 1 24.8,0 z"
     id="path558" />
  <path
     class="cls-9"
     d="m 58.409136,115.93 -1,1.79 a 0.28,0.28 0 0 1 -0.49,0 l -1,-1.79 a 1.48,1.48 0 1 1 2.56,0 z"
     id="path560" />
  <path
     class="cls-9"
     d="m 66.359136,112.22 -1,1.79 a 0.29,0.29 0 0 1 -0.5,0 l -1,-1.79 a 1.58,1.58 0 0 1 -0.2,-0.74 1.48,1.48 0 1 1 2.77,0.74 z"
     id="path562" />
  <path
     class="cls-9"
     d="m 71.809136,120.08 -1,1.79 a 0.28,0.28 0 0 1 -0.49,0 l -1,-1.79 a 1.45,1.45 0 0 1 -0.2,-0.74 1.48,1.48 0 1 1 2.76,0.74 z"
     id="path564" />
  <path
     class="cls-9"
     d="m 56.929136,128.67 -1,1.79 a 0.29,0.29 0 0 1 -0.5,0 l -1,-1.79 a 1.45,1.45 0 0 1 -0.2,-0.74 1.48,1.48 0 1 1 2.76,0.74 z"
     id="path566" />
  <path
     class="cls-9"
     d="m 64.119136,124.69 -1,1.79 a 0.28,0.28 0 0 1 -0.49,0 l -1,-1.79 a 1.45,1.45 0 0 1 -0.2,-0.74 1.48,1.48 0 1 1 2.76,0.74 z"
     id="path568" />
  <path
     class="cls-9"
     d="m 71.399136,130.4 -1,1.79 a 0.28,0.28 0 0 1 -0.49,0 l -1,-1.79 a 1.58,1.58 0 0 1 -0.2,-0.74 1.48,1.48 0 1 1 2.77,0.74 z"
     id="path570" />
  <path
     class="cls-9"
     d="m 64.869136,137.59 -1,1.79 a 0.28,0.28 0 0 1 -0.49,0 l -1,-1.79 a 1.55,1.55 0 0 1 -0.2,-0.74 1.48,1.48 0 1 1 2.76,0.74 z"
     id="path572" />
  <path
     class="cls-6"
     d="m 42.599136,111.48 -4.28,5.92 2.44,9.89 1.84,-2.54 v 2.73 l -1.34,1.85 1.34,5.42 v 6.67 l -2.57,-10.4 -5.63,7.79 a 13.54,13.54 0 0 1 -0.75,-1.69 l 5.88,-8.13 -2.44,-9.89 -5.69,7.87 -0.44,-2.12 5.63,-7.79 -2.47,-10 -5.3,7.35 -0.44,-2.13 5.24,-7.25 -0.34,-1.35 h 3.25 l -1.22,1.68 2.47,10 4.78,-6.62 z"
     id="path574" />
  <path
     class="cls-10"
     d="m 125.19914,122.55 a 7.2,7.2 0 0 1 -7.2,7.2 v -14.4 a 7.2,7.2 0 0 1 7.2,7.2 z"
     id="path576" />
  <path
     class="cls-9"
     d="m 119.23914,112.92 a 1.24,1.24 0 0 1 -1.24,1.24 v -2.48 a 1.25,1.25 0 0 1 1.24,1.24 z"
     id="path578" />
  <path
     class="cls-9"
     d="m 119.23914,132.22 a 1.23,1.23 0 0 1 -1.24,1.23 v -2.47 0 a 1.24,1.24 0 0 1 1.24,1.24 z"
     id="path580" />
  <circle
     class="cls-9"
     cx="122.85912"
     cy="130.86002"
     r="1.24"
     id="circle582" />
  <circle
     class="cls-9"
     cx="126.38913"
     cy="127.26999"
     r="1.24"
     id="circle584" />
  <circle
     class="cls-9"
     cx="127.61914"
     cy="122.39001"
     r="1.24"
     id="circle586" />
  <circle
     class="cls-9"
     cx="126.21915"
     cy="117.54999"
     r="1.24"
     id="circle588" />
  <circle
     class="cls-9"
     cx="122.57912"
     cy="114.07999"
     r="1.24"
     id="circle590" />
  <path
     class="cls-6"
     d="m 109.39914,115.05 v -11.37 a 24.52,24.52 0 0 0 -24.810002,0 v 11.37 a 2.06,2.06 0 0 1 0.91,0.53 l 7.63,7.64 h -8.54 v 3.19 h 8.54 l -7.6,7.63 a 2,2 0 0 1 -0.91,0.54 v 11.37 a 24.52,24.52 0 0 0 24.810002,0 v -11.37 a 2,2 0 0 1 -0.91,-0.54 l -7.64,-7.63 h 8.55 v -3.19 h -8.55 l 7.64,-7.64 a 2.06,2.06 0 0 1 0.88,-0.53 z m -14.000002,24.42 a 2.09,2.09 0 0 1 -2.57,2.05 16.77,16.77 0 0 1 -4.63,-1.89 2.12,2.12 0 0 1 -0.44,-3.32 l 7.64,-7.64 z m 0,-18.52 -7.64,-7.63 a 2.12,2.12 0 0 1 0.44,-3.32 17.11,17.11 0 0 1 4.63,-1.9 2.1,2.1 0 0 1 2.57,2.06 z m 10.830002,15.36 a 2.12,2.12 0 0 1 -0.44,3.32 16.9,16.9 0 0 1 -4.63,1.89 2.09,2.09 0 0 1 -2.569999,-2.05 v -10.8 z m 0,-23 -7.639999,7.63 v -10.78 a 2.1,2.1 0 0 1 2.569999,-2.06 17.24,17.24 0 0 1 4.63,1.9 2.12,2.12 0 0 1 0.44,3.32 z"
     id="path592" />
  <path
     class="cls-4"
     d="m 93.129138,126.41 -7.6,7.63 a 2,2 0 0 1 -0.91,0.54 v -8.17 z"
     id="path594" />
  <path
     class="cls-4"
     d="m 93.129138,123.22 h -8.54 v -8.17 a 2.06,2.06 0 0 1 0.91,0.53 z"
     id="path596" />
  <path
     class="cls-4"
     d="m 95.399138,110.16 v 10.79 l -7.64,-7.63 a 2.12,2.12 0 0 1 0.44,-3.32 17.11,17.11 0 0 1 4.63,-1.9 2.1,2.1 0 0 1 2.57,2.06 z"
     id="path598" />
  <path
     class="cls-4"
     d="m 95.399138,128.67 v 10.8 a 2.09,2.09 0 0 1 -2.57,2.05 16.77,16.77 0 0 1 -4.63,-1.89 2.12,2.12 0 0 1 -0.44,-3.32 z"
     id="path600" />
  <path
     class="cls-4"
     d="m 106.22914,113.32 -7.639999,7.63 v -10.79 a 2.1,2.1 0 0 1 2.569999,-2.06 17.24,17.24 0 0 1 4.63,1.9 2.12,2.12 0 0 1 0.44,3.32 z"
     id="path602" />
  <path
     class="cls-4"
     d="m 105.78914,139.63 a 16.9,16.9 0 0 1 -4.63,1.89 2.09,2.09 0 0 1 -2.569999,-2.05 v -10.8 l 7.639999,7.64 a 2.12,2.12 0 0 1 -0.44,3.32 z"
     id="path604" />
  <path
     class="cls-4"
     d="m 109.39914,126.41 v 8.17 a 2,2 0 0 1 -0.91,-0.54 l -7.64,-7.63 z"
     id="path606" />
  <path
     class="cls-4"
     d="m 109.39914,115.05 v 8.17 h -8.55 l 7.64,-7.64 a 2.06,2.06 0 0 1 0.91,-0.53 z"
     id="path608" />
  <g
     class="cls-11"
     id="g626"
     transform="translate(-340.47086,-200.78)">
    <path
       class="cls-12"
       d="m 433.6,327.19 -7.6,7.63 a 2,2 0 0 1 -0.91,0.54 v -8.17 z"
       id="path610" />
    <path
       class="cls-12"
       d="m 433.6,324 h -8.54 v -8.17 a 2.06,2.06 0 0 1 0.91,0.53 z"
       id="path612" />
    <path
       class="cls-12"
       d="m 435.87,310.94 v 10.79 l -7.64,-7.63 a 2.12,2.12 0 0 1 0.44,-3.32 17.11,17.11 0 0 1 4.63,-1.9 2.1,2.1 0 0 1 2.57,2.06 z"
       id="path614" />
    <path
       class="cls-12"
       d="m 435.87,329.45 v 10.8 a 2.09,2.09 0 0 1 -2.57,2.05 16.77,16.77 0 0 1 -4.63,-1.89 2.12,2.12 0 0 1 -0.44,-3.32 z"
       id="path616" />
    <path
       class="cls-12"
       d="m 446.7,314.1 -7.64,7.63 v -10.79 a 2.1,2.1 0 0 1 2.57,-2.06 17.24,17.24 0 0 1 4.63,1.9 2.12,2.12 0 0 1 0.44,3.32 z"
       id="path618" />
    <path
       class="cls-12"
       d="m 446.26,340.41 a 16.9,16.9 0 0 1 -4.63,1.89 2.09,2.09 0 0 1 -2.57,-2.05 v -10.8 l 7.64,7.64 a 2.12,2.12 0 0 1 -0.44,3.32 z"
       id="path620" />
    <path
       class="cls-12"
       d="m 449.87,327.19 v 8.17 a 2,2 0 0 1 -0.91,-0.54 l -7.64,-7.63 z"
       id="path622" />
    <path
       class="cls-12"
       d="M 449.87,315.83 V 324 h -8.55 l 7.64,-7.64 a 2.06,2.06 0 0 1 0.91,-0.53 z"
       id="path624" />
  </g>
  <path
     class="cls-2"
     d="M 104.75914,7 A 25,25 0 0 1 79.759138,32 25,25 0 0 1 104.75914,7 Z"
     id="path628" />
  <path
     class="cls-3"
     d="M 67.309136,19.58 A 12.43,12.43 0 0 0 79.749138,32.01 12.43,12.43 0 0 0 67.309136,19.58 Z"
     id="path630" />
</svg>
